<?xml version="1.0" encoding="utf-8"?>
<!-- Svg Vector Icons : http://www.onlinewebfonts.com/icon -->
<!DOCTYPE svg PUBLIC "-//W3C//DTD SVG 1.1//EN" "http://www.w3.org/Graphics/SVG/1.1/DTD/svg11.dtd">
<svg version="1.1" xmlns="http://www.w3.org/2000/svg" xmlns:xlink="http://www.w3.org/1999/xlink" x="0px" y="0px" viewBox="0 0 1000 1000" enable-background="new 0 0 1000 1000" xml:space="preserve">
<metadata> Svg Vector Icons : http://www.onlinewebfonts.com/icon </metadata>
<g><g transform="translate(0.000000,511.000000) scale(0.100000,-0.100000)"><path d="M2014,2210.9C1870.4,2143.4,189.7,458.5,134.8,329.7c-46.5-109.8-46.5-333.6,0-443.4c25.3-61.2,285-335.7,903.7-958.6c964.9-967,971.2-973.3,1218.3-973.3c325.2,2.1,555.3,232.3,557.4,559.5c2.1,230.1-33.8,276.6-705.2,969.1c-325.2,337.8-591.2,618.6-591.2,627.1c0,10.6,266,291.4,593.3,625c669.3,688.3,703.1,732.6,703.1,967c0,128.8-8.4,164.7-63.3,263.9C2598.8,2234.2,2284.2,2339.7,2014,2210.9z"/><path d="M7514.1,2217.3c-206.9-92.9-337.8-291.4-337.8-515.2c0-228,38-278.7,701-960.7c329.4-337.8,597.5-622.9,597.5-631.3c0-10.6-270.3-297.7-601.7-637.6c-358.9-369.5-618.6-654.5-644-705.2c-57-120.4-67.6-325.2-21.1-447.6c50.7-135.1,179.5-266,310.4-323c149.9-65.5,371.6-52.8,504.6,27.4c50.7,29.6,479.3,441.3,950.1,916.3C9906.3-122.1,9900-130.6,9900,108c0,238.6,8.4,228-937.5,1178.1c-650.3,654.5-893.1,884.7-971.2,922.7C7854.1,2276.4,7653.5,2280.6,7514.1,2217.3z"/><path d="M2964.1,743.5c-175.2-44.3-354.7-190-437.1-358.9c-69.7-141.5-76-356.8-16.9-513.1c116.1-310.4,464.5-481.4,787.5-388.5c230.2,67.6,390.6,238.6,449.7,481.4c33.8,133,33.8,154.1,2.1,280.8C3658.7,610.5,3314.6,828,2964.1,743.5z"/><path d="M4773.6,724.5c-549-196.4-593.3-943.8-71.8-1201.4c101.4-50.7,147.8-59.1,289.3-59.1c206.9,0,335.7,59.1,479.3,219.6c230.1,257.6,213.2,648.2-40.1,893.1C5261.3,739.3,4988.9,800.5,4773.6,724.5z"/><path d="M6654.8,724.5c-354.7-126.7-534.2-540.5-382.2-874.1c71.8-158.4,166.8-257.6,308.3-327.3c101.3-50.7,147.8-59.1,289.3-59.1c198.5,0,325.2,50.7,456,181.6C7467.7-212.9,7503.6-120,7503.6,108c0,228-35.9,320.9-175.2,460.3C7159.4,737.2,6874.4,802.6,6654.8,724.5z"/></g></g>
</svg>