<svg height="64" viewBox="0 0 128 128" width="64" xmlns="http://www.w3.org/2000/svg" xmlns:xlink="http://www.w3.org/1999/xlink"><linearGradient id="a" gradientUnits="userSpaceOnUse" x1="0" x2="128" y1="128" y2="0"><stop offset="0" stop-color="#333"/><stop offset="1" stop-color="#5d5d5d"/></linearGradient><path d="m29.09375 11.234373c-3.1838 0-5.71875 2.5662-5.71875 5.749999v94.031258c0 3.18379 2.53495 5.75 5.71875 5.75h69.8125c3.1838 0 5.71875-2.56621 5.71875-5.75v-70.656258h-21.03125c-4.30611 0-8.0625-3.1411-8.0625-7.3125v-21.812499zm50.4375 0v21.812499c0 1.71413 1.63197 3.3125 4.0625 3.3125h21.03125zm-43.625 39.562499h34.5c.97906 0 1.75.80218 1.75 1.78125v2.625c0 .97907-.77094 1.78125-1.75 1.78125h-34.5c-.97907 0-1.75-.80218-1.75-1.78125v-2.625c0-.97907.77093-1.78125 1.75-1.78125zm0 14.40625h56.15625c.97906 0 1.78125.80218 1.78125 1.78125v2.65625c0 .97907-.80219 1.75-1.78125 1.75h-56.15625c-.97907 0-1.75-.77093-1.75-1.75v-2.65625c0-.97907.77093-1.78125 1.75-1.78125zm0 14.4375h56.15625c.97906 0 1.78125.77093 1.78125 1.75v2.65625c0 .97907-.80219 1.78125-1.78125 1.78125h-56.15625c-.97907 0-1.75-.80218-1.75-1.78125v-2.65625c0-.97907.77093-1.75 1.75-1.75zm0 14.40625h56.15625c.97906 0 1.78125.77093 1.78125 1.75v2.65625c0 .97907-.80219 1.781258-1.78125 1.781258h-56.15625c-.97907 0-1.75-.802188-1.75-1.781258v-2.65625c0-.97907.77093-1.75 1.75-1.75z" fill="url(#a)"/></svg>